M48
;GenerationSoftware,Autodesk,EAGLE,9.5.0*%
;CreationDate,2020-03-18T16:33:26Z*%
FMAT,2
ICI,OFF
METRIC,TZ,000.000
T3C0.508
T2C0.900
T1C1.016
%
G90
M71
T1
X4343Y26518
X6883Y26518
X17528Y49282
X17528Y46742
X17528Y44202
X17528Y41662
X17528Y39122
X17528Y36582
X17528Y34042
X17528Y31502
X17528Y28962
X17528Y26422
X37871Y49282
X37871Y46742
X37871Y44202
X37871Y41662
X37871Y39122
X37871Y36582
X37871Y34042
X37871Y31502
X37871Y28962
X37871Y26422
X21343Y19629
X23883Y19629
X26423Y19629
X28963Y19629
X31503Y19629
X34043Y19629
X4445Y43663
X6985Y43663
X14398Y10530
X11858Y10530
X9318Y10530
X6778Y10530
X4238Y10530
X52973Y10530
X50433Y10530
X47893Y10530
X45353Y10530
X42813Y10530
X37733Y10530
X40273Y10530
T2
X4521Y31953
X4521Y39573
T3
X32086Y10490
X30836Y10490
X29586Y10490
X28336Y10490
X27086Y10490
X25836Y10490
X24586Y10490
X23336Y10490
M30