G04 EAGLE Gerber RS-274X export*
G75*
%MOMM*%
%FSLAX34Y34*%
%LPD*%
%INSoldermask Bottom*%
%IPPOS*%
%AMOC8*
5,1,8,0,0,1.08239X$1,22.5*%
G01*
%ADD10R,1.727200X1.727200*%
%ADD11P,1.869504X8X112.500000*%
%ADD12P,1.869504X8X22.500000*%
%ADD13C,1.219200*%
%ADD14C,2.082800*%


D10*
X43434Y265176D03*
D11*
X68834Y265176D03*
D10*
X175280Y492819D03*
D12*
X175280Y467419D03*
X175280Y442019D03*
X175280Y416619D03*
X175280Y391219D03*
X175280Y365819D03*
X175280Y340419D03*
X175280Y315019D03*
X175280Y289619D03*
X175280Y264219D03*
D10*
X378714Y492819D03*
D12*
X378714Y467419D03*
X378714Y442019D03*
X378714Y416619D03*
X378714Y391219D03*
X378714Y365819D03*
X378714Y340419D03*
X378714Y315019D03*
X378714Y289619D03*
X378714Y264219D03*
D10*
X213429Y196285D03*
D11*
X238829Y196285D03*
X264229Y196285D03*
X289629Y196285D03*
X315029Y196285D03*
X340429Y196285D03*
D10*
X44450Y436626D03*
D11*
X69850Y436626D03*
D13*
X233364Y109982D02*
X233364Y99822D01*
X245864Y99822D02*
X245864Y109982D01*
X258364Y109982D02*
X258364Y99822D01*
X270864Y99822D02*
X270864Y109982D01*
X283364Y109982D02*
X283364Y99822D01*
X295864Y99822D02*
X295864Y109982D01*
X308364Y109982D02*
X308364Y99822D01*
X320864Y99822D02*
X320864Y109982D01*
D14*
X45212Y395732D03*
X45212Y319532D03*
D10*
X377331Y105300D03*
D11*
X402731Y105300D03*
X428131Y105300D03*
X453531Y105300D03*
X478931Y105300D03*
X504331Y105300D03*
X529731Y105300D03*
D10*
X42379Y105300D03*
D11*
X67779Y105300D03*
X93179Y105300D03*
X118579Y105300D03*
X143979Y105300D03*
M02*
